<svg width="1932" height="1105" viewBox="0 0 1932 1105" fill="none" xmlns="http://www.w3.org/2000/svg" xmlns:xlink="http://www.w3.org/1999/xlink">
<path d="M965.825 552.73L483.188 276.735L0.549805 552.73L483.188 828.724L965.825 552.73Z" fill="#3E3F41"/>
<path d="M1448.46 829.006L965.825 553.011L483.188 829.006L965.825 1105L1448.46 829.006Z" fill="#3E3F41"/>
<path d="M1448.46 276.453L965.825 0.458496L483.188 276.453L965.825 552.447L1448.46 276.453Z" fill="#3E3F41"/>
<path d="M1931.1 552.73L1448.46 276.735L965.825 552.73L1448.46 828.724L1931.1 552.73Z" fill="#3E3F41"/>
<rect x="107.601" y="276.251" width="749.359" height="506.225" fill="url(#pattern0)"/>
<rect x="713.62" y="590.147" width="502.596" height="406.432" fill="url(#pattern1)"/>
<rect x="584.795" y="22.2314" width="783.833" height="473.566" fill="url(#pattern2)"/>
<rect x="1121.87" y="274.437" width="580.617" height="439.906" fill="url(#pattern3)"/>
<defs>
<pattern id="pattern0" patternContentUnits="objectBoundingBox" width="1" height="1">
<use xlink:href="#image0_755_176473" transform="translate(0 -0.00130578) scale(0.00114025 0.0016879)"/>
</pattern>
<pattern id="pattern1" patternContentUnits="objectBoundingBox" width="1" height="1">
<use xlink:href="#image1_755_176473" transform="translate(-0.000260137) scale(0.00179305 0.00221729)"/>
</pattern>
<pattern id="pattern2" patternContentUnits="objectBoundingBox" width="1" height="1">
<use xlink:href="#image2_755_176473" transform="translate(0 -0.00087669) scale(0.000706215 0.00116891)"/>
</pattern>
<pattern id="pattern3" patternContentUnits="objectBoundingBox" width="1" height="1">
<use xlink:href="#image3_755_176473" transform="scale(0.00085034 0.00112233)"/>
</pattern>
<image id="image0_755_176473" width="877" height="594" xlink:href="/assets/champs.png"/>
<image id="image1_755_176473" width="558" height="451" xlink:href="/assets/maisons.png"/>
<image id="image2_755_176473" width="1416" height="857" xlink:href="/assets/pubs.png"/>
<image id="image3_755_176473" width="1176" height="891" xlink:href="/assets/usine--champ.png"/>
</defs>
</svg>
